<?xml version="1.0" encoding="UTF-8" standalone="no"?>
<!DOCTYPE svg PUBLIC "-//W3C//DTD SVG 1.1//EN" "http://www.w3.org/Graphics/SVG/1.1/DTD/svg11.dtd">
<svg width="100%" height="100%" viewBox="0 0 1736 660" version="1.1" xmlns="http://www.w3.org/2000/svg" xmlns:xlink="http://www.w3.org/1999/xlink" xml:space="preserve" xmlns:serif="http://www.serif.com/" style="fill-rule:evenodd;clip-rule:evenodd;stroke-linejoin:round;stroke-miterlimit:2;">
    <g transform="matrix(1,0,0,1,-116.072,-103.547)">
        <g transform="matrix(1.96405,0,0,1.96405,-2703.39,-519.231)">
            <g transform="matrix(0.509153,0,0,0.509153,1458.4,248.939)">
                <text x="180px" y="737px" style="font-family:'Montserrat-Medium', 'Montserrat';font-weight:500;font-size:288px;fill:rgb(64,120,179);fill-opacity:0.8;">BioF<tspan x="843.264px " y="737px ">S</tspan>har<tspan x="1506.53px " y="737px ">p</tspan></text>
            </g>
            <g transform="matrix(4.16667,0,0,4.16667,1006.02,-113.577)">
                <path d="M103.09,170.566C103.088,170.604 103.086,170.641 103.084,170.679C103.084,170.679 103.085,170.64 103.09,170.566ZM129.526,137.321C130.404,140.757 135.915,151.423 130.03,158.541C124.145,165.66 115.052,161.811 109.126,163.403C109.035,163.427 108.946,163.452 108.858,163.478L110.412,164.439C110.412,164.439 112.01,165.114 111.505,166.349C111,167.585 109.219,166.547 109.219,166.547L106.103,164.861C105.806,165.09 105.538,165.332 105.297,165.582L107.31,166.754C107.31,166.754 108.504,167.258 108.127,168.182C107.749,169.105 106.418,168.33 106.418,168.33L104.166,167.096C103.277,168.652 103.118,170.151 103.09,170.566C103.802,157.041 113.363,161.315 120.894,160.23L120.361,159.92C120.361,159.92 119.166,159.416 119.544,158.492C119.921,157.569 121.253,158.344 121.253,158.344L123.486,159.574C124.016,159.367 124.525,159.113 125.01,158.8C125.508,158.478 125.949,158.122 126.338,157.738L123.798,156.26C123.798,156.26 122.2,155.586 122.704,154.351C123.21,153.115 124.99,154.153 124.99,154.153L127.824,155.713C128.207,154.971 128.478,154.179 128.659,153.364L125.674,151.626C125.674,151.626 123.753,150.816 124.36,149.331C124.967,147.847 127.108,149.093 127.108,149.093L128.794,150.002L128.956,150.092C128.864,145.477 126.932,141.098 126.932,141.098C116.832,116.443 130.695,103.36 130.695,103.36L136.825,107.926C135.329,109.042 134.072,110.256 133.021,111.535L138.945,115.533C138.945,115.533 138.75,115.383 137.2,117.196C135.65,119.009 135.473,118.541 135.473,118.541L130.551,115.321C129.815,116.776 129.273,118.268 128.89,119.759L133.742,123.022C133.742,123.022 136.325,124.671 135.036,126.178C133.746,127.686 131.769,126.033 131.769,126.033L128.18,123.74C127.999,125.538 127.997,127.279 128.097,128.89L131.382,131.1C131.382,131.1 133.313,132.332 132.349,133.46C131.384,134.588 129.906,133.351 129.906,133.351L128.485,132.443C128.836,134.702 129.3,136.44 129.526,137.321Z" style="fill:rgb(193,216,237);"/>
            </g>
            <g transform="matrix(4.16667,0,0,4.16667,1011.11,-121.724)">
                <path d="M112.602,178.985C112.569,179.004 112.536,179.023 112.503,179.041C112.503,179.041 112.538,179.023 112.602,178.985ZM130.229,140.341C126.769,141.118 114.763,141.047 111.091,149.521C107.418,157.996 114.975,164.352 116.246,170.355C116.266,170.447 116.283,170.538 116.3,170.628L114.374,169.429C114.374,169.429 113.048,168.31 112.177,169.321C111.305,170.331 113.038,171.448 113.038,171.448L116.318,173.711C116.249,174.079 116.155,174.427 116.042,174.756L114.083,173.495C114.083,173.495 113.093,172.659 112.441,173.414C111.789,174.17 113.084,175.004 113.084,175.004L115.205,176.451C114.222,177.949 112.959,178.771 112.602,178.985C124.331,172.212 116.183,165.633 113.731,158.429L114.25,158.763C114.25,158.763 115.241,159.599 115.893,158.844C116.545,158.088 115.25,157.253 115.25,157.253L113.14,155.821C113.084,155.256 113.08,154.686 113.139,154.112C113.199,153.522 113.316,152.968 113.482,152.447L115.952,154.04C115.952,154.04 117.278,155.158 118.15,154.147C119.021,153.137 117.289,152.021 117.289,152.021L114.613,150.203C115.1,149.525 115.682,148.924 116.327,148.393L119.071,150.163C119.071,150.163 120.664,151.507 121.712,150.292C122.759,149.077 120.677,147.735 120.677,147.735L119.261,146.747L119.107,146.644C123.261,144.632 128.04,144.366 128.04,144.366C154.593,142.177 159.961,123.886 159.961,123.886L153.11,120.496C152.794,122.336 152.283,124.007 151.62,125.524L147.208,123.525C147.208,123.525 145.984,123.125 145.072,125.33C144.159,127.533 144.565,127.893 144.565,127.893L149.368,129.444C148.406,130.759 147.322,131.919 146.166,132.937L142.646,131.194L140.653,133.217L142.942,135.377C141.422,136.353 139.871,137.146 138.39,137.788L134.93,135.863C134.93,135.863 132.956,134.702 132.388,136.073C131.821,137.444 133.594,138.201 133.594,138.201L135.048,139.055C132.876,139.766 131.117,140.141 130.229,140.341Z" style="fill:rgb(64,120,179);fill-opacity:0.8;"/>
            </g>
            <g transform="matrix(4.16667,0,0,4.16667,1006.02,-113.577)">
                <path d="M103.09,170.566C103.088,170.604 103.086,170.641 103.084,170.679C103.084,170.679 103.085,170.64 103.09,170.566ZM128.956,150.092C128.864,145.477 135.915,151.423 130.03,158.541C124.145,165.66 115.052,161.811 109.126,163.403C109.035,163.427 108.946,163.452 108.858,163.478L110.412,164.439C110.412,164.439 112.01,165.114 111.505,166.349C111,167.585 109.219,166.547 109.219,166.547L106.103,164.861C105.806,165.09 105.538,165.332 105.297,165.582L107.31,166.754C107.31,166.754 108.504,167.258 108.127,168.182C107.749,169.105 106.418,168.33 106.418,168.33L104.166,167.096C103.277,168.652 103.118,170.151 103.09,170.566C103.802,157.041 113.363,161.315 120.894,160.23L120.361,159.92C120.361,159.92 119.166,159.416 119.544,158.492C119.921,157.569 121.253,158.344 121.253,158.344L123.486,159.574C124.016,159.367 124.525,159.113 125.01,158.8C125.508,158.478 125.949,158.122 126.338,157.738L123.798,156.26C123.798,156.26 122.2,155.586 122.704,154.351C123.21,153.115 124.99,154.153 124.99,154.153L127.824,155.713C128.207,154.971 128.478,154.179 128.659,153.364L125.674,151.626C125.674,151.626 123.753,150.816 124.36,149.331C124.967,147.847 127.108,149.093 127.108,149.093L128.794,150.002L128.956,150.092Z" style="fill:rgb(193,216,237);"/>
            </g>
            <g>
                <g transform="matrix(0.401753,0,0,0.401753,1539.78,345.909)">
                    <path d="M0,121.492L121.492,0L121.492,60.746L60.746,121.492L121.492,182.237L121.492,242.983L0,121.492Z" style="fill:rgb(64,120,179);fill-rule:nonzero;"/>
                </g>
                <g transform="matrix(0.401753,0,0,0.401753,1539.78,345.909)">
                    <path d="M78.102,121.492L121.492,78.102L121.492,164.881L78.102,121.492Z" style="fill:rgb(64,120,179);fill-rule:nonzero;"/>
                </g>
                <g transform="matrix(0.401753,0,0,0.401753,1539.78,345.909)">
                    <path d="M256,121.492L130.169,0L130.169,60.746L190.915,121.492L130.169,182.237L130.169,242.983L256,121.492Z" style="fill:rgb(193,216,237);fill-rule:nonzero;"/>
                </g>
            </g>
        </g>
    </g>
</svg>
